<?xml version="1.0" standalone="no"?>
<!DOCTYPE svg PUBLIC "-//W3C//DTD SVG 20010904//EN"
 "http://www.w3.org/TR/2001/REC-SVG-20010904/DTD/svg10.dtd">
<svg version="1.0" xmlns="http://www.w3.org/2000/svg"
 width="1253.000000pt" height="1280.000000pt" viewBox="0 0 1253.000000 1280.000000"
 preserveAspectRatio="xMidYMid meet">
<g transform="translate(0.000000,1280.000000) scale(0.100000,-0.100000)"
fill="#000000" stroke="none">
<path d="M7830 12780 c-231 -49 -415 -144 -490 -253 l-24 -34 -175 -6 c-191
-6 -255 -18 -420 -73 -199 -66 -388 -174 -547 -312 -188 -163 -305 -382 -350
-651 -13 -82 -15 -140 -11 -275 8 -250 38 -363 192 -738 98 -236 128 -332 165
-533 66 -364 144 -521 317 -639 97 -66 167 -89 288 -93 119 -5 179 12 277 78
292 197 414 500 379 938 -14 174 -94 685 -86 551 3 -47 17 -177 31 -290 32
-246 35 -417 11 -509 -38 -140 -124 -246 -248 -306 -98 -47 -162 -58 -299 -53
-97 4 -128 10 -198 36 -209 78 -325 200 -381 400 -11 39 -36 162 -56 274 -42
229 -60 282 -182 543 -108 229 -154 364 -160 470 -12 202 91 404 314 615 168
159 373 279 621 364 151 52 450 129 469 122 7 -3 13 -19 13 -35 0 -33 14 -41
68 -41 41 0 107 28 209 89 116 68 328 137 553 178 113 20 478 22 650 3 416
-46 717 -202 1048 -544 62 -65 109 -109 104 -99 -23 41 -120 155 -220 257
-332 336 -685 493 -1237 551 -82 8 -189 20 -236 25 -125 15 -292 10 -389 -10z"/>
<path d="M9360 12006 c0 -39 197 -182 325 -235 197 -82 363 -90 731 -35 348
52 541 50 709 -9 27 -9 41 -21 43 -34 2 -15 9 -19 23 -16 16 4 19 0 19 -25 0
-34 -18 -52 -31 -31 -15 24 -10 -164 5 -215 14 -45 13 -52 -9 -109 -13 -34
-37 -129 -55 -211 -68 -322 -125 -434 -309 -608 -263 -250 -674 -486 -1025
-588 -251 -72 -414 -91 -866 -99 l-365 -6 -3 -33 c-3 -31 0 -34 50 -56 70 -31
171 -61 283 -83 69 -13 136 -17 290 -17 172 1 219 5 335 27 488 94 968 345
1306 682 185 184 250 308 299 570 46 246 73 303 205 440 112 116 125 144 125
280 0 123 -13 180 -50 218 -42 41 -70 42 -141 6 -35 -17 -71 -29 -81 -26 -10
3 -52 17 -93 32 -89 31 -236 55 -340 55 -88 0 -291 -23 -405 -45 -291 -58
-556 -15 -869 141 -97 48 -106 51 -106 30z m1930 -521 c0 -8 -7 -15 -15 -15
-8 0 -15 7 -15 15 0 8 7 15 15 15 8 0 15 -7 15 -15z m-40 -44 c0 -6 -4 -13
-10 -16 -5 -3 -10 1 -10 9 0 9 5 16 10 16 6 0 10 -4 10 -9z"/>
<path d="M8710 11796 c-61 -13 -113 -36 -150 -67 -29 -24 -25 -23 51 14 73 35
139 47 265 47 58 0 106 4 109 10 9 14 -207 11 -275 -4z"/>
<path d="M9160 11630 c-98 -59 -217 -99 -328 -111 -54 -5 -126 -13 -162 -17
l-65 -7 2 -35 c1 -27 10 -42 40 -67 58 -49 119 -66 223 -61 79 4 97 8 172 45
55 28 101 60 137 97 50 50 55 59 59 109 7 87 -2 92 -78 47z"/>
<path d="M10049 10863 c-13 -17 -13 -17 6 -3 11 8 22 16 24 17 2 2 0 3 -6 3
-6 0 -17 -8 -24 -17z"/>
<path d="M10368 10801 c-48 -20 -88 -42 -88 -49 0 -17 25 -9 113 34 37 19 67
39 67 44 0 6 -1 9 -2 9 -2 -1 -42 -18 -90 -38z"/>
<path d="M9835 10690 c-8 -13 15 -13 35 0 12 8 11 10 -7 10 -12 0 -25 -4 -28
-10z"/>
<path d="M5829 9513 c-103 -93 -184 -247 -265 -503 -96 -303 -114 -352 -169
-465 -111 -228 -231 -383 -524 -675 -223 -222 -416 -393 -746 -660 -465 -377
-630 -548 -1050 -1089 -315 -407 -427 -529 -791 -863 -273 -251 -436 -435
-580 -653 -281 -428 -447 -915 -533 -1562 -53 -397 -73 -873 -42 -1011 9 -41
11 -66 4 -73 -41 -41 -676 442 -838 638 -212 257 -245 684 -90 1150 71 213
165 377 385 668 260 345 343 502 414 784 53 209 60 268 60 566 1 251 -1 292
-22 397 -40 210 -100 334 -234 487 -109 124 -299 261 -362 261 -56 0 -24 -65
80 -165 40 -37 131 -152 182 -227 182 -269 282 -637 242 -885 -36 -226 -129
-403 -400 -764 -66 -87 -150 -204 -185 -258 -195 -297 -300 -655 -347 -1181
-30 -337 -8 -565 74 -742 26 -58 53 -89 217 -250 376 -371 567 -512 772 -572
l82 -23 28 -85 c86 -263 255 -476 501 -631 102 -64 268 -139 312 -141 27 -1
31 3 34 26 2 15 0 34 -5 41 -4 8 -64 61 -133 118 -340 283 -567 564 -665 822
-41 109 -68 310 -61 452 6 132 57 587 82 730 82 481 321 970 675 1380 92 107
289 300 451 444 195 171 358 355 678 761 473 603 575 708 1163 1199 177 147
381 322 452 388 299 275 507 546 660 858 89 181 129 294 201 570 104 395 164
539 295 710 27 36 47 65 44 65 -3 0 -23 -17 -46 -37z"/>
<path d="M10925 9211 c-345 -132 -426 -179 -580 -336 -91 -93 -107 -105 -159
-120 -71 -21 -118 -16 -250 25 -52 16 -131 34 -177 41 -107 15 -309 6 -455
-20 -238 -44 -361 -94 -604 -244 -173 -106 -249 -132 -380 -131 -134 1 -232
36 -544 194 -141 71 -262 130 -269 130 -21 -1 -70 -90 -85 -154 -10 -43 -12
-88 -8 -154 12 -182 54 -320 172 -580 165 -360 264 -585 264 -600 0 -12 -9
-13 -48 -8 -91 12 -233 64 -521 191 -95 42 -176 73 -180 70 -11 -12 29 -33
223 -118 225 -100 326 -136 460 -167 l99 -23 34 -76 c71 -158 451 -898 520
-1013 19 -32 32 -62 29 -67 -4 -5 -29 -14 -57 -20 -175 -38 -388 -143 -559
-274 -325 -251 -567 -560 -1035 -1322 -98 -159 -253 -405 -345 -545 -194 -295
-236 -367 -324 -550 -238 -497 -363 -1038 -341 -1480 16 -325 100 -909 171
-1194 62 -246 152 -454 240 -554 46 -53 143 -112 183 -112 30 0 127 45 182 85
43 31 56 35 112 35 145 1 296 29 612 115 235 64 388 95 620 126 147 20 213 23
480 23 355 0 393 -5 843 -108 361 -83 724 -147 1067 -188 172 -20 623 -17 760
5 590 97 991 370 1243 848 146 276 239 699 202 927 -52 333 -101 457 -240 606
-173 187 -481 289 -770 256 -52 -6 -98 -16 -102 -23 -12 -19 -9 -104 5 -114 6
-5 57 -22 111 -37 473 -130 808 -375 897 -656 70 -222 -4 -519 -204 -815 -80
-118 -292 -330 -412 -411 -257 -175 -560 -279 -909 -313 -295 -29 -610 -10
-1126 69 -425 65 -688 89 -1055 97 -537 11 -824 -23 -1620 -193 -311 -67 -351
-74 -361 -60 -8 12 -30 16 -91 16 -150 0 -282 59 -409 185 -70 69 -89 95 -132
185 -83 171 -151 466 -207 898 -57 442 -29 763 98 1137 103 301 190 472 507
995 108 179 270 448 360 599 302 508 513 803 730 1021 213 215 434 374 721
519 90 46 166 85 168 87 2 2 6 18 10 35 10 48 25 46 58 -8 73 -118 88 -107 88
65 0 152 -5 166 -130 352 -46 69 -127 208 -180 310 -157 298 -446 835 -597
1108 -77 139 -159 297 -183 350 -94 213 -138 409 -102 457 15 19 22 16 263
-104 412 -204 477 -226 644 -218 126 5 159 17 355 127 229 128 377 186 587
231 82 18 138 23 273 23 185 1 221 -5 400 -61 130 -41 211 -47 268 -19 25 12
59 47 97 96 100 132 193 194 487 327 254 115 298 131 320 117 28 -17 57 -111
133 -422 82 -338 95 -425 87 -587 -6 -130 -21 -214 -62 -343 -15 -46 -24 -86
-22 -88 8 -8 45 89 65 171 29 116 34 164 34 312 -1 208 -22 335 -127 768 -35
143 -69 286 -75 318 -9 43 -16 57 -28 56 -9 -1 -107 -36 -217 -78z"/>
<path d="M7060 7070 c-340 -9 -209 -23 238 -25 345 -1 445 -5 522 -18 111 -19
133 -21 110 -7 -40 23 -509 66 -640 58 -19 -1 -123 -5 -230 -8z"/>
<path d="M7675 6794 c-55 -7 -176 -22 -270 -34 -93 -11 -174 -25 -180 -31 -7
-9 2 -10 35 -6 25 4 101 13 170 22 245 30 365 48 385 56 29 12 -18 9 -140 -7z"/>
<path d="M3705 4604 c-95 -21 -232 -76 -336 -135 -177 -100 -649 -483 -649
-526 0 -13 3 -23 6 -23 3 0 92 47 198 103 290 157 437 219 636 268 134 33 386
33 504 1 203 -56 362 -150 527 -312 258 -253 383 -556 336 -815 -28 -154 -86
-272 -266 -535 -58 -85 -167 -248 -243 -362 -171 -257 -272 -384 -374 -468
-44 -36 -115 -96 -160 -133 -108 -89 -151 -137 -164 -189 -14 -49 -7 -117 12
-129 28 -18 108 -9 160 17 62 32 75 31 353 -20 331 -61 554 -140 709 -250 132
-94 281 -284 293 -374 5 -34 2 -41 -33 -71 -47 -42 -123 -76 -228 -103 -64
-16 -124 -21 -284 -25 -230 -6 -388 4 -742 48 -333 41 -468 47 -600 24 -108
-19 -290 -79 -575 -188 -140 -53 -171 -68 -173 -86 -2 -11 1 -21 7 -21 20 0
203 30 366 61 439 82 512 84 955 30 446 -54 538 -61 785 -61 313 0 409 22 501
114 42 41 56 64 73 120 73 238 -70 582 -321 771 -92 69 -226 130 -368 167
-118 31 -135 32 -308 33 -140 0 -182 3 -182 13 0 7 33 54 73 105 99 125 116
150 334 477 225 337 246 373 318 521 60 126 105 256 132 381 27 126 24 417 -6
558 -59 275 -180 499 -376 696 -160 160 -308 253 -487 305 -98 28 -304 35
-403 13z"/>
<path d="M10675 4422 c-167 -164 -238 -259 -299 -405 -129 -304 -164 -717
-136 -1601 12 -360 30 -553 64 -689 29 -113 71 -210 88 -205 42 14 69 262 44
393 -91 473 -100 572 -100 1035 0 340 2 386 22 490 59 318 179 605 399 952 58
92 74 124 71 148 -3 30 -6 27 -153 -118z"/>
</g>
</svg>
